<?xml version="1.0" encoding="utf-8"?>
<!-- Generator: Adobe Illustrator 16.0.4, SVG Export Plug-In . SVG Version: 6.00 Build 0)  -->
<!DOCTYPE svg PUBLIC "-//W3C//DTD SVG 1.0//EN" "http://www.w3.org/TR/2001/REC-SVG-20010904/DTD/svg10.dtd">
<svg version="1.0" id="Laag_1" xmlns="http://www.w3.org/2000/svg" xmlns:xlink="http://www.w3.org/1999/xlink" x="0px" y="0px"
	 width="223.954px" height="210.468px" viewBox="0 0 223.954 210.468" enable-background="new 0 0 223.954 210.468"
	 xml:space="preserve">
<g>
	<path fill="#415E6F" d="M94.696,109.431c-1.332,0-2.405,0.476-3.221,1.426c-0.814,0.952-1.223,2.386-1.223,4.304
		c0,1.887,0.42,3.318,1.256,4.292c0.837,0.974,1.898,1.461,3.188,1.461c1.287,0,2.345-0.484,3.171-1.45
		c0.825-0.966,1.238-2.416,1.238-4.349c0-1.911-0.402-3.335-1.207-4.275C97.096,109.9,96.027,109.431,94.696,109.431z"/>
	<path fill="#415E6F" d="M113.511,91.538c0-1.948-0.409-3.401-1.229-4.36s-1.909-1.438-3.268-1.438
		c-1.357,0-2.452,0.486-3.282,1.457c-0.832,0.969-1.247,2.433-1.247,4.389c0,1.924,0.427,3.383,1.28,4.377
		c0.853,0.993,1.937,1.489,3.249,1.489c1.313,0,2.393-0.492,3.233-1.479C113.091,94.988,113.511,93.509,113.511,91.538z"/>
	<path fill="#415E6F" d="M114.318,110.682c-0.4-0.395-0.909-0.661-1.524-0.8c-0.461-0.108-1.362-0.162-2.706-0.162h-1.48v11.258
		h2.461c0.92,0,1.584-0.054,1.992-0.162c0.534-0.139,0.978-0.375,1.33-0.707c0.352-0.333,0.641-0.88,0.863-1.642
		c0.223-0.761,0.333-1.797,0.333-3.112s-0.11-2.323-0.333-3.026C115.031,111.625,114.719,111.075,114.318,110.682z"/>
	<path fill="#415E6F" d="M176.188,82.729l-19.904,0.008V56.38l-30.208,0.058V29.089H96.562v27.349H66.295v26.357H46.447v41.051
		h19.848v26.279H82.41v31.254h26.262v-31.254h5.265v31.254h26.293v-31.254h16.027v-26.279h19.936L176.188,82.729z M87.014,85.12
		c0.471-0.754,1.15-1.327,2.037-1.722c0.887-0.395,1.957-0.591,3.211-0.591c2.048,0,3.591,0.467,4.625,1.402
		c1.016,0.918,1.554,2.143,1.621,3.666h-3.336c-0.154-0.749-0.436-1.307-0.855-1.653c-0.465-0.384-1.16-0.574-2.088-0.574
		c-0.958,0-1.707,0.206-2.249,0.615c-0.348,0.262-0.522,0.615-0.522,1.055c0,0.4,0.163,0.746,0.489,1.033
		c0.416,0.362,1.426,0.741,3.028,1.136c1.603,0.394,2.788,0.801,3.556,1.222c0.769,0.422,1.37,0.998,1.804,1.728
		c0.435,0.731,0.65,1.635,0.65,2.709c0,0.974-0.26,1.885-0.778,2.735c-0.52,0.85-1.254,1.483-2.204,1.896
		c-0.95,0.414-2.134,0.62-3.551,0.62c-2.063,0-3.646-0.498-4.753-1.49c-1.106-0.993-1.766-2.441-1.98-4.343l0.015-0.001h3.265
		c0.209,0.95,0.57,1.675,1.099,2.146c0.59,0.527,1.386,0.79,2.389,0.79c1.061,0,1.859-0.233,2.397-0.701
		c0.538-0.469,0.808-1.015,0.808-1.642c0-0.401-0.113-0.744-0.339-1.026c-0.228-0.282-0.623-0.527-1.186-0.735
		c-0.387-0.14-1.266-0.388-2.639-0.742c-1.766-0.457-3.005-1.019-3.718-1.682c-1.002-0.936-1.503-2.075-1.503-3.422
		C86.307,86.684,86.542,85.875,87.014,85.12z M85.878,109.719h-4.831v14.124h-3.295v-14.124H72.91v-2.875h12.968V109.719z
		 M100.339,121.51c-1.404,1.52-3.281,2.28-5.632,2.28c-2.379,0-4.272-0.756-5.676-2.269c-1.405-1.512-2.106-3.596-2.106-6.248
		c0-1.697,0.244-3.123,0.731-4.274c0.363-0.848,0.86-1.61,1.489-2.285c0.63-0.675,1.319-1.176,2.068-1.502
		c0.997-0.438,2.146-0.658,3.449-0.658c2.357,0,4.244,0.762,5.659,2.285c1.415,1.524,2.123,3.642,2.123,6.356
		C102.445,117.885,101.743,119.991,100.339,121.51z M101.089,91.701c0-1.731,0.248-3.185,0.745-4.36
		c0.372-0.866,0.878-1.642,1.521-2.331c0.641-0.688,1.346-1.199,2.108-1.53c1.018-0.448,2.189-0.672,3.519-0.672
		c2.404,0,4.328,0.776,5.771,2.33c1.442,1.553,2.164,3.715,2.164,6.482c0,2.744-0.715,4.891-2.147,6.44
		c-1.433,1.55-3.347,2.326-5.744,2.326c-2.426,0-4.356-0.771-5.788-2.312C101.806,96.529,101.089,94.406,101.089,91.701z
		 M118.493,119.123c-0.408,1.237-0.991,2.238-1.749,3.003c-0.57,0.579-1.342,1.031-2.314,1.356
		c-0.727,0.239-1.699,0.361-2.916,0.361h-6.2v-16.999h6.021c1.358,0,2.393,0.108,3.105,0.324c0.958,0.294,1.777,0.816,2.46,1.566
		c0.684,0.75,1.202,1.667,1.56,2.754c0.355,1.084,0.534,2.424,0.534,4.017C118.994,116.904,118.827,118.109,118.493,119.123z
		 M119.444,82.75h4.932l2.96,11.941l2.928-11.941h4.942v17.345h-3.062v-13.38l-3.238,13.38h-3.173l-3.229-13.38v13.38h-3.061V82.75z
		 M132.918,123.843l-1.424-3.862h-6.522l-1.348,3.862h-3.496l6.356-16.999h3.484l6.534,16.999H132.918z M143.389,116.712v7.131
		h-3.284v-7.155l-5.978-9.844h3.863l3.84,6.726l3.763-6.726h3.795L143.389,116.712z"/>
	<polygon fill="#415E6F" points="125.983,117.117 130.436,117.117 128.188,110.809 	"/>
</g>
</svg>
